<mxfile host="65bd71144e">
    <diagram id="U_0cSmqlGpK3SWT97dpM" name="Page-1">
        <mxGraphModel dx="372" dy="1449" grid="1" gridSize="15" guides="1" tooltips="1" connect="1" arrows="1" fold="1" page="1" pageScale="1" pageWidth="850" pageHeight="1100" math="0" shadow="0">
            <root>
                <mxCell id="0"/>
                <mxCell id="1" parent="0"/>
                <mxCell id="2" value="" style="whiteSpace=wrap;html=1;fillColor=none;fontSize=12;" vertex="1" parent="1">
                    <mxGeometry x="385" y="-170" width="120" height="320" as="geometry"/>
                </mxCell>
                <mxCell id="3" value="" style="whiteSpace=wrap;html=1;fillColor=none;fontSize=12;" vertex="1" parent="1">
                    <mxGeometry x="385" y="-170" width="120" height="30" as="geometry"/>
                </mxCell>
                <mxCell id="4" value="Cliente" style="text;strokeColor=none;align=center;fillColor=none;html=1;verticalAlign=middle;whiteSpace=wrap;rounded=0;fontSize=12;" vertex="1" parent="1">
                    <mxGeometry x="415" y="-170" width="60" height="30" as="geometry"/>
                </mxCell>
                <mxCell id="5" value="" style="whiteSpace=wrap;html=1;fillColor=none;fontSize=12;" vertex="1" parent="1">
                    <mxGeometry x="645" y="-140" width="120" height="90" as="geometry"/>
                </mxCell>
                <mxCell id="6" value="" style="whiteSpace=wrap;html=1;fillColor=none;fontSize=12;" vertex="1" parent="1">
                    <mxGeometry x="645" y="-170" width="120" height="30" as="geometry"/>
                </mxCell>
                <mxCell id="7" value="Pedido" style="text;strokeColor=none;align=center;fillColor=none;html=1;verticalAlign=middle;whiteSpace=wrap;rounded=0;fontSize=12;" vertex="1" parent="1">
                    <mxGeometry x="675" y="-170" width="60" height="30" as="geometry"/>
                </mxCell>
                <mxCell id="10" value="id: ObjectId" style="text;strokeColor=none;align=center;fillColor=none;html=1;verticalAlign=middle;whiteSpace=wrap;rounded=0;fontSize=12;" vertex="1" parent="1">
                    <mxGeometry x="385" y="-140" width="80" height="30" as="geometry"/>
                </mxCell>
                <mxCell id="11" value="nome: String" style="text;strokeColor=none;align=center;fillColor=none;html=1;verticalAlign=middle;whiteSpace=wrap;rounded=0;fontSize=12;" vertex="1" parent="1">
                    <mxGeometry x="385" y="-110" width="80" height="30" as="geometry"/>
                </mxCell>
                <mxCell id="12" value="cpf: String" style="text;strokeColor=none;align=center;fillColor=none;html=1;verticalAlign=middle;whiteSpace=wrap;rounded=0;fontSize=12;" vertex="1" parent="1">
                    <mxGeometry x="385" y="-90" width="80" height="30" as="geometry"/>
                </mxCell>
                <mxCell id="13" value="data_nascimento: DateTime?" style="text;strokeColor=none;align=center;fillColor=none;html=1;verticalAlign=middle;whiteSpace=wrap;rounded=0;fontSize=12;" vertex="1" parent="1">
                    <mxGeometry x="385" y="-60" width="100" height="30" as="geometry"/>
                </mxCell>
                <mxCell id="17" value="" style="whiteSpace=wrap;html=1;fillColor=none;fontSize=12;" vertex="1" parent="1">
                    <mxGeometry x="645" y="-10" width="120" height="160" as="geometry"/>
                </mxCell>
                <mxCell id="18" value="" style="whiteSpace=wrap;html=1;fillColor=none;fontSize=12;" vertex="1" parent="1">
                    <mxGeometry x="645" y="-10" width="120" height="30" as="geometry"/>
                </mxCell>
                <mxCell id="19" value="ItemPedido" style="text;strokeColor=none;align=center;fillColor=none;html=1;verticalAlign=middle;whiteSpace=wrap;rounded=0;fontSize=12;" vertex="1" parent="1">
                    <mxGeometry x="660" y="-10" width="90" height="30" as="geometry"/>
                </mxCell>
                <mxCell id="20" value="id: ObjectId" style="text;strokeColor=none;align=center;fillColor=none;html=1;verticalAlign=middle;whiteSpace=wrap;rounded=0;fontSize=12;" vertex="1" parent="1">
                    <mxGeometry x="645" y="20" width="80" height="30" as="geometry"/>
                </mxCell>
                <mxCell id="21" value="email: String?" style="text;strokeColor=none;align=center;fillColor=none;html=1;verticalAlign=middle;whiteSpace=wrap;rounded=0;fontSize=12;" vertex="1" parent="1">
                    <mxGeometry x="385" y="-30" width="80" height="30" as="geometry"/>
                </mxCell>
                <mxCell id="23" value="logradouro: String" style="text;strokeColor=none;align=center;fillColor=none;html=1;verticalAlign=middle;whiteSpace=wrap;rounded=0;fontSize=12;" vertex="1" parent="1">
                    <mxGeometry x="385" y="-10" width="100" height="30" as="geometry"/>
                </mxCell>
                <mxCell id="24" value="num_imovel: String" style="text;strokeColor=none;align=center;fillColor=none;html=1;verticalAlign=middle;whiteSpace=wrap;rounded=0;fontSize=12;" vertex="1" parent="1">
                    <mxGeometry x="385" y="10" width="110" height="30" as="geometry"/>
                </mxCell>
                <mxCell id="28" value="complemento: String" style="text;strokeColor=none;align=center;fillColor=none;html=1;verticalAlign=middle;whiteSpace=wrap;rounded=0;fontSize=12;" vertex="1" parent="1">
                    <mxGeometry x="385" y="30" width="120" height="30" as="geometry"/>
                </mxCell>
                <mxCell id="30" value="Bairro: String" style="text;strokeColor=none;align=center;fillColor=none;html=1;verticalAlign=middle;whiteSpace=wrap;rounded=0;fontSize=12;" vertex="1" parent="1">
                    <mxGeometry x="385" y="50" width="120" height="30" as="geometry"/>
                </mxCell>
                <mxCell id="31" value="" style="edgeStyle=elbowEdgeStyle;elbow=vertical;endArrow=diamondThin;html=1;curved=0;rounded=1;entryX=0.627;entryY=0.006;entryDx=0;entryDy=0;endFill=1;entryPerimeter=0;endSize=20;exitX=0.5;exitY=0;exitDx=0;exitDy=0;fontSize=12;" edge="1" parent="1" source="4" target="7">
                    <mxGeometry width="50" height="50" relative="1" as="geometry">
                        <mxPoint x="443.13" y="-180" as="sourcePoint"/>
                        <mxPoint x="712.5" y="-180.00000000000003" as="targetPoint"/>
                        <Array as="points">
                            <mxPoint x="563.13" y="-240"/>
                        </Array>
                    </mxGeometry>
                </mxCell>
                <mxCell id="35" value="Uf: String" style="text;strokeColor=none;align=center;fillColor=none;html=1;verticalAlign=middle;whiteSpace=wrap;rounded=0;fontSize=12;" vertex="1" parent="1">
                    <mxGeometry x="380" y="70" width="120" height="30" as="geometry"/>
                </mxCell>
                <mxCell id="36" value="id: ObjectId" style="text;strokeColor=none;align=center;fillColor=none;html=1;verticalAlign=middle;whiteSpace=wrap;rounded=0;fontSize=12;" vertex="1" parent="1">
                    <mxGeometry x="655" y="-140" width="80" height="30" as="geometry"/>
                </mxCell>
                <mxCell id="38" value="num_pedido: integer" style="text;strokeColor=none;align=center;fillColor=none;html=1;verticalAlign=middle;whiteSpace=wrap;rounded=0;fontSize=12;" vertex="1" parent="1">
                    <mxGeometry x="635" y="-120" width="140" height="30" as="geometry"/>
                </mxCell>
                <mxCell id="39" value="data_hora DateTime" style="text;strokeColor=none;align=center;fillColor=none;html=1;verticalAlign=middle;whiteSpace=wrap;rounded=0;fontSize=12;" vertex="1" parent="1">
                    <mxGeometry x="650" y="-100" width="115" height="30" as="geometry"/>
                </mxCell>
                <mxCell id="40" value="clientid: ObjectId" style="text;strokeColor=none;align=center;fillColor=none;html=1;verticalAlign=middle;whiteSpace=wrap;rounded=0;fontSize=12;" vertex="1" parent="1">
                    <mxGeometry x="645" y="-80" width="110" height="30" as="geometry"/>
                </mxCell>
                <mxCell id="46" value="" style="edgeStyle=elbowEdgeStyle;elbow=vertical;endArrow=diamondThin;html=1;curved=0;rounded=1;entryX=0;entryY=0;entryDx=0;entryDy=0;endFill=1;endSize=20;exitX=0;exitY=1;exitDx=0;exitDy=0;fontSize=12;" edge="1" parent="1" source="6" target="18">
                    <mxGeometry width="50" height="50" relative="1" as="geometry">
                        <mxPoint x="515" y="29.819999999999993" as="sourcePoint"/>
                        <mxPoint x="783" y="29.819999999999993" as="targetPoint"/>
                        <Array as="points">
                            <mxPoint x="585" y="-50"/>
                        </Array>
                    </mxGeometry>
                </mxCell>
                <mxCell id="48" value="num_item: integer" style="text;strokeColor=none;align=center;fillColor=none;html=1;verticalAlign=middle;whiteSpace=wrap;rounded=0;fontSize=12;" vertex="1" parent="1">
                    <mxGeometry x="635" y="40" width="140" height="30" as="geometry"/>
                </mxCell>
                <mxCell id="50" value="quantidade: Double" style="text;strokeColor=none;align=center;fillColor=none;html=1;verticalAlign=middle;whiteSpace=wrap;rounded=0;fontSize=12;" vertex="1" parent="1">
                    <mxGeometry x="645" y="60" width="120" height="30" as="geometry"/>
                </mxCell>
                <mxCell id="51" value="produto_id: ObjectId" style="text;strokeColor=none;align=center;fillColor=none;html=1;verticalAlign=middle;whiteSpace=wrap;rounded=0;fontSize=12;" vertex="1" parent="1">
                    <mxGeometry x="650" y="80" width="115" height="30" as="geometry"/>
                </mxCell>
                <mxCell id="54" value="pedido_id: ObjectId" style="text;strokeColor=none;align=center;fillColor=none;html=1;verticalAlign=middle;whiteSpace=wrap;rounded=0;fontSize=12;" vertex="1" parent="1">
                    <mxGeometry x="645" y="100" width="115" height="30" as="geometry"/>
                </mxCell>
                <mxCell id="55" value="1..*" style="text;strokeColor=none;align=center;fillColor=none;html=1;verticalAlign=middle;whiteSpace=wrap;rounded=0;fontSize=12;" vertex="1" parent="1">
                    <mxGeometry x="585" y="-35" width="60" height="30" as="geometry"/>
                </mxCell>
                <mxCell id="56" value="" style="whiteSpace=wrap;html=1;fillColor=none;fontSize=12;" vertex="1" parent="1">
                    <mxGeometry x="835" y="-15" width="160" height="275" as="geometry"/>
                </mxCell>
                <mxCell id="89" style="edgeStyle=none;html=1;exitX=0;exitY=0;exitDx=0;exitDy=0;entryX=1;entryY=0;entryDx=0;entryDy=0;endArrow=diamondThin;endFill=1;strokeWidth=1;endSize=19;fontSize=12;" edge="1" parent="1" source="61" target="18">
                    <mxGeometry relative="1" as="geometry"/>
                </mxCell>
                <mxCell id="61" value="" style="whiteSpace=wrap;html=1;fillColor=none;fontSize=12;" vertex="1" parent="1">
                    <mxGeometry x="835" y="-15" width="160" height="30" as="geometry"/>
                </mxCell>
                <mxCell id="63" value="Produtos" style="text;strokeColor=none;align=center;fillColor=none;html=1;verticalAlign=middle;whiteSpace=wrap;rounded=0;fontSize=12;" vertex="1" parent="1">
                    <mxGeometry x="872.5" y="-15" width="90" height="30" as="geometry"/>
                </mxCell>
                <mxCell id="64" value="" style="whiteSpace=wrap;html=1;fillColor=none;fontSize=12;" vertex="1" parent="1">
                    <mxGeometry x="885" y="-180" width="120" height="100" as="geometry"/>
                </mxCell>
                <mxCell id="65" value="" style="whiteSpace=wrap;html=1;fillColor=none;fontSize=12;" vertex="1" parent="1">
                    <mxGeometry x="885" y="-180" width="120" height="30" as="geometry"/>
                </mxCell>
                <mxCell id="68" value="Categoria" style="text;strokeColor=none;align=center;fillColor=none;html=1;verticalAlign=middle;whiteSpace=wrap;rounded=0;fontSize=12;" vertex="1" parent="1">
                    <mxGeometry x="915" y="-180" width="60" height="30" as="geometry"/>
                </mxCell>
                <mxCell id="71" value="id: ObjectId" style="text;strokeColor=none;align=center;fillColor=none;html=1;verticalAlign=middle;whiteSpace=wrap;rounded=0;fontSize=12;" vertex="1" parent="1">
                    <mxGeometry x="895" y="-150" width="80" height="30" as="geometry"/>
                </mxCell>
                <mxCell id="72" value="descricao: String" style="text;strokeColor=none;align=center;fillColor=none;html=1;verticalAlign=middle;whiteSpace=wrap;rounded=0;fontSize=12;" vertex="1" parent="1">
                    <mxGeometry x="900" y="-120" width="95" height="30" as="geometry"/>
                </mxCell>
                <mxCell id="74" value="id: ObjectId" style="text;strokeColor=none;align=center;fillColor=none;html=1;verticalAlign=middle;whiteSpace=wrap;rounded=0;fontSize=12;" vertex="1" parent="1">
                    <mxGeometry x="877.5" y="15" width="80" height="30" as="geometry"/>
                </mxCell>
                <mxCell id="76" value="nome: String" style="text;strokeColor=none;align=center;fillColor=none;html=1;verticalAlign=middle;whiteSpace=wrap;rounded=0;fontSize=12;" vertex="1" parent="1">
                    <mxGeometry x="877.5" y="30" width="80" height="30" as="geometry"/>
                </mxCell>
                <mxCell id="78" value="marca: String" style="text;strokeColor=none;align=center;fillColor=none;html=1;verticalAlign=middle;whiteSpace=wrap;rounded=0;fontSize=12;" vertex="1" parent="1">
                    <mxGeometry x="877.5" y="50" width="80" height="30" as="geometry"/>
                </mxCell>
                <mxCell id="79" value="detalhes: String?" style="text;strokeColor=none;align=center;fillColor=none;html=1;verticalAlign=middle;whiteSpace=wrap;rounded=0;fontSize=12;" vertex="1" parent="1">
                    <mxGeometry x="855" y="70" width="125" height="30" as="geometry"/>
                </mxCell>
                <mxCell id="81" value="quantidade_unidade: Double" style="text;strokeColor=none;align=center;fillColor=none;html=1;verticalAlign=middle;whiteSpace=wrap;rounded=0;fontSize=12;" vertex="1" parent="1">
                    <mxGeometry x="835" y="90" width="160" height="30" as="geometry"/>
                </mxCell>
                <mxCell id="82" value="unidade_media: String" style="text;strokeColor=none;align=center;fillColor=none;html=1;verticalAlign=middle;whiteSpace=wrap;rounded=0;fontSize=12;" vertex="1" parent="1">
                    <mxGeometry x="850" y="120" width="130" height="20" as="geometry"/>
                </mxCell>
                <mxCell id="86" value="" style="edgeStyle=segmentEdgeStyle;endArrow=diamondThin;html=1;curved=0;rounded=1;endSize=21;startSize=8;exitX=0;exitY=0;exitDx=0;exitDy=0;entryX=0;entryY=0;entryDx=0;entryDy=0;endFill=1;strokeColor=default;fontSize=12;" edge="1" parent="1" source="61" target="65">
                    <mxGeometry width="50" height="50" relative="1" as="geometry">
                        <mxPoint x="825" y="-70" as="sourcePoint"/>
                        <mxPoint x="875" y="-120" as="targetPoint"/>
                        <Array as="points">
                            <mxPoint x="835" y="-180"/>
                        </Array>
                    </mxGeometry>
                </mxCell>
                <mxCell id="87" value="" style="rhombus;whiteSpace=wrap;html=1;fontSize=12;" vertex="1" parent="1">
                    <mxGeometry x="855" y="-190" width="30" height="20" as="geometry"/>
                </mxCell>
                <mxCell id="90" value="Preco_unidade: Double" style="text;strokeColor=none;align=center;fillColor=none;html=1;verticalAlign=middle;whiteSpace=wrap;rounded=0;fontSize=12;" vertex="1" parent="1">
                    <mxGeometry x="842.5" y="140" width="145" height="20" as="geometry"/>
                </mxCell>
                <mxCell id="91" value="qtd_estoque: Double" style="text;strokeColor=none;align=center;fillColor=none;html=1;verticalAlign=middle;whiteSpace=wrap;rounded=0;fontSize=12;" vertex="1" parent="1">
                    <mxGeometry x="850" y="160" width="120" height="30" as="geometry"/>
                </mxCell>
                <mxCell id="92" value="categoria_ids: [ObjectId]" style="text;strokeColor=none;align=center;fillColor=none;html=1;verticalAlign=middle;whiteSpace=wrap;rounded=0;fontSize=12;" vertex="1" parent="1">
                    <mxGeometry x="820.5" y="190" width="189" height="30" as="geometry"/>
                </mxCell>
                <mxCell id="93" value="fornecedores_ids: [ObjectId]" style="text;strokeColor=none;align=center;fillColor=none;html=1;verticalAlign=middle;whiteSpace=wrap;rounded=0;fontSize=12;" vertex="1" parent="1">
                    <mxGeometry x="820.5" y="220" width="189" height="30" as="geometry"/>
                </mxCell>
                <mxCell id="95" value="" style="whiteSpace=wrap;html=1;fillColor=none;fontSize=12;" vertex="1" parent="1">
                    <mxGeometry x="1055" y="-15" width="160" height="275" as="geometry"/>
                </mxCell>
                <mxCell id="97" value="" style="whiteSpace=wrap;html=1;fillColor=none;fontSize=12;" vertex="1" parent="1">
                    <mxGeometry x="1055" y="-15" width="160" height="30" as="geometry"/>
                </mxCell>
                <mxCell id="100" value="Fornecedores" style="text;strokeColor=none;align=center;fillColor=none;html=1;verticalAlign=middle;whiteSpace=wrap;rounded=0;fontSize=12;" vertex="1" parent="1">
                    <mxGeometry x="1085" y="-15" width="90" height="30" as="geometry"/>
                </mxCell>
                <mxCell id="102" value="id: ObjectId" style="text;strokeColor=none;align=center;fillColor=none;html=1;verticalAlign=middle;whiteSpace=wrap;rounded=0;fontSize=12;" vertex="1" parent="1">
                    <mxGeometry x="1095" y="15" width="80" height="30" as="geometry"/>
                </mxCell>
                <mxCell id="103" value="razao_social: String" style="text;strokeColor=none;align=center;fillColor=none;html=1;verticalAlign=middle;whiteSpace=wrap;rounded=0;fontSize=12;" vertex="1" parent="1">
                    <mxGeometry x="1075" y="40" width="120" height="30" as="geometry"/>
                </mxCell>
                <mxCell id="104" value="0..*" style="text;strokeColor=none;align=center;fillColor=none;html=1;verticalAlign=middle;whiteSpace=wrap;rounded=0;fontSize=12;" vertex="1" parent="1">
                    <mxGeometry x="770" y="-35" width="40" height="30" as="geometry"/>
                </mxCell>
                <mxCell id="105" value="1" style="text;strokeColor=none;align=center;fillColor=none;html=1;verticalAlign=middle;whiteSpace=wrap;rounded=0;fontSize=12;" vertex="1" parent="1">
                    <mxGeometry x="795" y="-40" width="60" height="30" as="geometry"/>
                </mxCell>
                <mxCell id="106" value="0..*" style="text;strokeColor=none;align=center;fillColor=none;html=1;verticalAlign=middle;whiteSpace=wrap;rounded=0;fontSize=12;" vertex="1" parent="1">
                    <mxGeometry x="837.5" y="-40" width="40" height="30" as="geometry"/>
                </mxCell>
                <mxCell id="107" value="" style="edgeStyle=elbowEdgeStyle;elbow=horizontal;endArrow=classic;html=1;curved=0;rounded=1;endSize=8;startSize=8;exitX=0.25;exitY=0;exitDx=0;exitDy=0;entryX=1;entryY=0;entryDx=0;entryDy=0;fontSize=12;" edge="1" parent="1" source="100" target="63">
                    <mxGeometry width="50" height="50" relative="1" as="geometry">
                        <mxPoint x="945" y="50" as="sourcePoint"/>
                        <mxPoint x="955" y="-30" as="targetPoint"/>
                        <Array as="points">
                            <mxPoint x="1025" y="-50"/>
                        </Array>
                    </mxGeometry>
                </mxCell>
                <mxCell id="108" value="0..*" style="text;strokeColor=none;align=center;fillColor=none;html=1;verticalAlign=middle;whiteSpace=wrap;rounded=0;fontSize=12;" vertex="1" parent="1">
                    <mxGeometry x="1085" y="-80" width="40" height="30" as="geometry"/>
                </mxCell>
                <mxCell id="109" value="0..*" style="text;strokeColor=none;align=center;fillColor=none;html=1;verticalAlign=middle;whiteSpace=wrap;rounded=0;fontSize=12;" vertex="1" parent="1">
                    <mxGeometry x="947.5" y="-80" width="40" height="30" as="geometry"/>
                </mxCell>
                <mxCell id="110" value="cnpj: String" style="text;strokeColor=none;align=center;fillColor=none;html=1;verticalAlign=middle;whiteSpace=wrap;rounded=0;fontSize=12;" vertex="1" parent="1">
                    <mxGeometry x="1095" y="60" width="80" height="30" as="geometry"/>
                </mxCell>
                <mxCell id="111" value="email: String" style="text;strokeColor=none;align=center;fillColor=none;html=1;verticalAlign=middle;whiteSpace=wrap;rounded=0;fontSize=12;" vertex="1" parent="1">
                    <mxGeometry x="1095" y="80" width="80" height="30" as="geometry"/>
                </mxCell>
                <mxCell id="112" value="logradouro: String" style="text;strokeColor=none;align=center;fillColor=none;html=1;verticalAlign=middle;whiteSpace=wrap;rounded=0;fontSize=12;" vertex="1" parent="1">
                    <mxGeometry x="1085" y="100" width="100" height="30" as="geometry"/>
                </mxCell>
                <mxCell id="113" value="1" style="text;strokeColor=none;align=center;fillColor=none;html=1;verticalAlign=middle;whiteSpace=wrap;rounded=0;fontSize=12;" vertex="1" parent="1">
                    <mxGeometry x="425" y="-200" width="60" height="30" as="geometry"/>
                </mxCell>
                <mxCell id="114" value="0..*" style="text;strokeColor=none;align=center;fillColor=none;html=1;verticalAlign=middle;whiteSpace=wrap;rounded=0;fontSize=12;" vertex="1" parent="1">
                    <mxGeometry x="680" y="-230" width="40" height="30" as="geometry"/>
                </mxCell>
                <mxCell id="115" value="0..*" style="text;strokeColor=none;align=center;fillColor=none;html=1;verticalAlign=middle;whiteSpace=wrap;rounded=0;fontSize=12;" vertex="1" parent="1">
                    <mxGeometry x="835" y="-170" width="40" height="30" as="geometry"/>
                </mxCell>
                <mxCell id="188" value="num_imovel: String" style="text;strokeColor=none;align=center;fillColor=none;html=1;verticalAlign=middle;whiteSpace=wrap;rounded=0;fontSize=12;" vertex="1" parent="1">
                    <mxGeometry x="1080" y="115" width="100" height="30" as="geometry"/>
                </mxCell>
                <mxCell id="189" value="complemento: String" style="text;strokeColor=none;align=center;fillColor=none;html=1;verticalAlign=middle;whiteSpace=wrap;rounded=0;fontSize=12;" vertex="1" parent="1">
                    <mxGeometry x="1075" y="135" width="120" height="30" as="geometry"/>
                </mxCell>
                <mxCell id="190" value="complemento: String" style="text;strokeColor=none;align=center;fillColor=none;html=1;verticalAlign=middle;whiteSpace=wrap;rounded=0;fontSize=12;" vertex="1" parent="1">
                    <mxGeometry x="1745" y="235" width="120" height="30" as="geometry"/>
                </mxCell>
                <mxCell id="191" value="Bairro: String" style="text;strokeColor=none;align=center;fillColor=none;html=1;verticalAlign=middle;whiteSpace=wrap;rounded=0;fontSize=12;" vertex="1" parent="1">
                    <mxGeometry x="1055" y="150" width="120" height="30" as="geometry"/>
                </mxCell>
                <mxCell id="192" value="complemento: String" style="text;strokeColor=none;align=center;fillColor=none;html=1;verticalAlign=middle;whiteSpace=wrap;rounded=0;fontSize=12;" vertex="1" parent="1">
                    <mxGeometry x="1765" y="250" width="120" height="30" as="geometry"/>
                </mxCell>
                <mxCell id="193" value="Municipio: String" style="text;strokeColor=none;align=center;fillColor=none;html=1;verticalAlign=middle;whiteSpace=wrap;rounded=0;fontSize=12;" vertex="1" parent="1">
                    <mxGeometry x="1075" y="165" width="120" height="30" as="geometry"/>
                </mxCell>
                <mxCell id="194" value="Uf: String" style="text;strokeColor=none;align=center;fillColor=none;html=1;verticalAlign=middle;whiteSpace=wrap;rounded=0;fontSize=12;" vertex="1" parent="1">
                    <mxGeometry x="1075" y="180" width="120" height="30" as="geometry"/>
                </mxCell>
                <mxCell id="195" value="Cep: String" style="text;strokeColor=none;align=center;fillColor=none;html=1;verticalAlign=middle;whiteSpace=wrap;rounded=0;fontSize=12;" vertex="1" parent="1">
                    <mxGeometry x="1075" y="205" width="120" height="30" as="geometry"/>
                </mxCell>
                <mxCell id="196" value="Celular: String" style="text;strokeColor=none;align=center;fillColor=none;html=1;verticalAlign=middle;whiteSpace=wrap;rounded=0;fontSize=12;" vertex="1" parent="1">
                    <mxGeometry x="1075" y="225" width="120" height="30" as="geometry"/>
                </mxCell>
                <mxCell id="197" value="Celular: String" style="text;strokeColor=none;align=center;fillColor=none;html=1;verticalAlign=middle;whiteSpace=wrap;rounded=0;fontSize=12;" vertex="1" parent="1">
                    <mxGeometry x="380" y="90" width="120" height="30" as="geometry"/>
                </mxCell>
                <mxCell id="200" value="Cep: String" style="text;strokeColor=none;align=center;fillColor=none;html=1;verticalAlign=middle;whiteSpace=wrap;rounded=0;fontSize=12;" vertex="1" parent="1">
                    <mxGeometry x="385" y="115" width="120" height="30" as="geometry"/>
                </mxCell>
            </root>
        </mxGraphModel>
    </diagram>
</mxfile>